{"accessors" : [{"bufferView" : 0, "byteOffset" : 0, "componentType" : 5123, "count" : 23244, "type" : "SCALAR", "max" : [4375], "min" : [0]}, {"bufferView" : 1, "byteOffset" : 0, "componentType" : 5126, "count" : 4376, "type" : "VEC3", "max" : [14.287750244140625, 69.5697021484375, 85.68536376953125], "min" : [-14.380760192871094, 0.009103900752961636, -57.40666580200195], "name" : "POSITION"}, {"bufferView" : 1, "byteOffset" : 12, "componentType" : 5126, "count" : 4376, "type" : "VEC3", "max" : [0.9999935030937195, 1, 1.000003457069397], "min" : [-0.9999923706054688, -1.0000044107437134, -0.9999430179595947], "name" : "NORMAL"}, {"bufferView" : 1, "byteOffset" : 24, "componentType" : 5126, "count" : 4376, "type" : "VEC2", "max" : [0.9570119976997375, 0.9809240102767944], "min" : [0.05435900017619133, 0.014303028583526611], "name" : "TEXCOORD_0"}], "asset" : {"generator" : "Aspose.3D 24.6.0", "version" : "2.0"}, "buffers" : [{"uri" : "data:application/octet-stream;base64,", "byteLength" : 186528}], "bufferViews" : [{"buffer" : 0, "byteOffset" : 0, "byteLength" : 46488, "target" : 34963}, {"buffer" : 0, "byteOffset" : 46492, "byteLength" : 140032, "byteStride" : 32, "target" : 34962}], "images" : [{"uri" : "data:image/jpeg;base64,"}], "materials" : [{"name" : "Dog_newUV_03:initialShadingGroup1_ncl1_1", "pbrMetallicRoughness" : {"baseColorFactor" : [1, 1, 1, 1], "baseColorTexture" : {"index" : 0, "texCoord" : 0}, "metallicFactor" : 1, "roughnessFactor" : 1}, "emissiveFactor" : [0, 0, 0], "alphaMode" : "OPAQUE", "doubleSided" : false}], "meshes" : [{"primitives" : [{"attributes" : {"POSITION" : 1, "NORMAL" : 2, "TEXCOORD_0" : 3}, "indices" : 0, "material" : 0, "mode" : 4}], "name" : "Mixamo_Goldenretriever_8k_ncl1_1"}], "nodes" : [{"mesh" : 0, "name" : "Mixamo_Goldenretriever_8k"}], "samplers" : [{"magFilter" : 9729, "minFilter" : 9729, "wrapS" : 10497, "wrapT" : 10497}], "scene" : 0, "scenes" : [{"nodes" : [0]}], "textures" : [{"sampler" : 0, "source" : 0, "name" : "Texture Texture_Labrador_jpg"}]}